<?xml version="1.0" encoding="UTF-8"?>
<svg id="Layer_2" data-name="Layer 2" xmlns="http://www.w3.org/2000/svg" viewBox="0 0 3238.49 467.97">
  <defs>
    <style>
      .cls-1 {
        fill: #c7c8ca;
      }
    </style>
  </defs>
  <g id="Layer_1-2" data-name="Layer 1">
    <g>
      <path class="cls-1" d="M350.9,26.52c15.32-8,32.81-12.01,52.48-12.01h52.14l-111.14,366.33c-9.15,28.82-23.22,50.42-42.19,64.83-18.98,14.4-44.48,21.61-76.49,21.61-36.13,0-64.03-9.71-83.69-29.15-19.67-19.43-34.54-45.84-44.6-79.24L0,14.51h54.88c18.75,0,35.78,4.01,51.11,12.01,15.32,8.01,25.49,21.38,30.53,40.13l73.4,278.52c2.74,8.7,7.43,13.04,14.07,13.04s11.55-4.34,14.75-13.04l78.89-275.09c6.86-21.03,17.94-35.55,33.27-43.56Z"/>
      <path class="cls-1" d="M565.28,15.2c19.21,0,32.81,5.72,40.82,17.15,8,11.44,11.77,26.99,11.32,46.65l-1.37,386.91h-62.43c-19.21,0-32.82-5.71-40.82-17.15-8.01-11.42-12.01-26.98-12.01-46.65V68.02c0-9.14-.11-18.06-.35-26.75-.22-8.69-.34-17.38-.34-26.07h65.17Z"/>
      <path class="cls-1" d="M869.86,127.7h-21.95c-20.58,0-35.45,4.92-44.6,14.75-9.15,9.84-13.72,28.25-13.72,55.23v269.6h-69.29c-20.13.45-34.3-5.14-42.53-16.81-8.23-11.66-12.35-27.1-12.35-46.3l.68-227.07c0-30.18,4-55.68,12.01-76.49,8-20.81,19.66-37.5,34.99-50.08,15.32-12.58,34.18-21.49,56.6-26.76,22.4-5.25,48.02-7.89,76.83-7.89h72.03v67.92c0,10.98-1.14,19.44-3.43,25.38-2.3,5.95-5.49,10.29-9.6,13.04-4.12,2.74-9.26,4.35-15.44,4.8-6.17.46-12.93.68-20.23.68Z"/>
      <path class="cls-1" d="M1316.46,314.3c0,13.27.45,26.87,1.37,40.82.91,13.96,2.74,27.68,5.49,41.16,2.74,13.49,6.17,26.41,10.29,38.76,4.11,12.35,9.37,23.33,15.77,32.93l-86.44-.68c-14.18-.45-25.73-3.43-34.64-8.92-8.92-5.49-14.53-13.72-16.81-24.7-.92-4.57-1.95-8.23-3.09-10.98-1.14-2.74-2.17-6.86-3.08-12.35-13.27,14.64-29.96,27.68-50.08,39.1-20.13,11.44-42.54,17.39-67.23,17.84-48.02.91-83.35-8.8-105.99-29.15-22.64-20.35-33.96-54.31-33.96-101.88,0-17.37,1.03-32.24,3.09-44.59,2.05-12.35,5.37-22.98,9.95-31.9,4.57-8.92,10.52-16.81,17.83-23.67,7.31-6.86,16.23-13.48,26.76-19.9,16-10.05,32.01-17.72,48.02-22.98,16-5.25,31.9-9.49,47.67-12.7,15.78-3.19,31.56-6.05,47.34-8.57,15.77-2.51,31.44-6.06,46.99-10.64,0-3.65-.34-6.51-1.03-8.57-.68-2.06-1.71-4.22-3.08-6.52-5.04-9.14-13.5-14.4-25.38-15.78-11.9-1.37-24.25-2.06-37.05-2.06-16.02-.45-32.13-.68-48.36-.68h-48.36c-19.67,0-35.22-4.46-46.65-13.38-11.44-8.92-16.92-22.98-16.46-42.19V17.26h151.61c15.1,0,31.21.24,48.36.68,17.15.46,33.96,2.4,50.42,5.83,16.46,3.43,31.78,9.04,45.96,16.8,14.17,7.78,25.61,18.76,34.3,32.93,11.89,20.13,17.6,55.35,17.15,105.65l-.69,135.14ZM1122.32,352.03c16.46-.45,29.6-4,39.44-10.63,9.83-6.63,17.38-14.97,22.64-25.04,5.25-10.06,8.46-20.81,9.6-32.24,1.14-11.42,1.25-22.4.35-32.93-10.07,2.74-21.85,5.15-35.33,7.2-13.49,2.06-26.3,5.15-38.42,9.26-12.12,4.12-22.29,10.07-30.52,17.84-8.23,7.78-12.13,18.98-11.66,33.61.45,10.53,4.34,18.76,11.66,24.7,7.31,5.95,18.06,8.69,32.24,8.23Z"/>
      <path class="cls-1" d="M1719.15,370.9c11.42,8.47,17.15,22.3,17.15,41.51v54.88h-181.79c-21.04-.91-42.09-3.65-63.11-8.23-21.04-4.57-39.79-13.48-56.26-26.76-9.6-8.23-17.38-17.49-23.32-27.78-5.95-10.29-10.53-21.15-13.72-32.59-3.21-11.42-5.49-23.21-6.86-35.33-1.37-12.12-2.3-24.12-2.74-36.02V18.54h65.17c19.21,0,32.81,5.72,40.82,17.15,8,11.44,12.01,26.76,12.01,45.96-.46,43-.68,28.33-.68,73.84v132.74c0,10.98,1.13,22.29,3.43,33.96,2.28,11.66,8.23,20.92,17.84,27.78,6.4,3.66,13.03,5.95,19.89,6.86,6.86.92,13.72,1.37,20.58,1.37h105.65c19.21,0,34.52,4.23,45.96,12.69Z"/>
    </g>
    <path class="cls-1" d="M2238.63,0v57.63c.45,17.84-4.8,30.99-15.78,39.45-10.98,8.47-24.7,12.69-41.16,12.69h-114.57c-24.24-.45-40.82,4.23-49.73,14.07-8.92,9.84-13.84,26.41-14.75,49.73v104.96c.45,16.46,2.74,29.15,6.86,38.07,4.12,8.92,10.18,15.43,18.18,19.55,8,4.11,17.6,6.52,28.82,7.2,11.2.68,23.89,1.27,38.07,1.71,15.54,0,29.26-.11,41.16-.35,11.89-.22,25.61-.34,41.16-.34,8.23,0,16,.92,23.33,2.74,7.31,1.83,13.72,4.69,19.21,8.57,5.49,3.89,9.83,9.16,13.04,15.78,3.19,6.63,4.8,14.75,4.8,24.35v56.94h-201.69c-25.62.45-47.68-3.65-66.2-12.35-18.52-8.69-33.85-20.81-45.96-36.36-12.12-15.54-21.04-33.49-26.75-53.85-5.72-20.34-8.58-41.95-8.58-64.83v-124.85c.45-48.47,13.83-87.13,40.13-115.94,26.3-28.81,64.14-43.67,113.54-44.59h196.89Z"/>
    <circle class="cls-1" cx="3154.45" cy="372.97" r="84.04"/>
    <path class="cls-1" d="M2957.22,357.76c-12.58-8.92-28.71-13.38-48.36-13.38h-22.64c-9.61,0-17.05-1.14-22.3-3.43-5.26-2.28-9.26-5.59-12.01-9.95-2.74-4.34-4.46-9.83-5.14-16.46-.68-6.62-1.03-14.06-1.03-22.29v-72.32l56.26.68c19.21,0,34.64-4,46.3-12.01,11.66-8,17.26-21.61,16.81-40.82v-53.51l-120.74-.68v-46.2c.45-19.66-3.43-35.21-11.67-46.65-8.23-11.43-22.19-17.15-41.85-17.15h-63.11v122.27l-71.98,7.57c-1.75-34.23-7.21-59.35-16.52-75.11-8.69-14.17-20.13-25.15-34.3-32.93-14.18-7.77-29.5-13.38-45.96-16.8-16.46-3.43-33.27-5.37-50.42-5.83-17.15-.45-33.27-.68-48.36-.68h-151.61v54.88c-.46,19.21,5.03,33.27,16.46,42.19,11.43,8.92,26.98,13.38,46.65,13.38h48.36c16.23,0,32.35.24,48.36.68,12.8,0,25.15.69,37.05,2.06,11.88,1.37,20.34,6.64,25.38,15.78,1.37,2.3,2.4,4.46,3.08,6.52.69,2.06,1.03,4.92,1.03,8.57-15.55,4.58-31.21,8.13-46.99,10.64-15.78,2.52-31.56,5.38-47.34,8.57-15.77,3.21-31.67,7.44-47.67,12.7-16.02,5.26-32.02,12.93-48.02,22.98-10.53,6.41-19.44,13.04-26.76,19.9-7.32,6.86-13.27,14.75-17.83,23.67-4.58,8.92-7.89,19.55-9.95,31.9-2.06,12.35-3.09,27.22-3.09,44.59,0,47.57,11.32,81.53,33.96,101.88,22.64,20.35,57.97,30.06,105.99,29.15,24.7-.45,47.1-6.4,67.23-17.84,20.12-11.43,36.81-24.46,50.08-39.1.91,5.49,1.94,9.61,3.08,12.35,1.14,2.74,2.17,6.41,3.09,10.98,2.28,10.98,7.89,19.21,16.81,24.7,8.92,5.49,20.46,8.47,34.64,8.92l86.44.68c-6.41-9.6-11.66-20.58-15.77-32.93-4.12-12.35-7.55-25.27-10.29-38.76-2.74-13.48-4.58-27.2-5.49-41.16-.92-13.95-1.37-27.55-1.37-40.82l.35-69.43,72.11-3.72c.17,30.59.25,68.41.25,102.65,0,26.99,2.63,48.48,7.89,64.48,5.25,16.02,13.6,28.37,25.04,37.05,11.43,8.69,26.07,14.53,43.91,17.49,17.84,2.98,39.11,4.46,63.8,4.46h106.33v-52.14c.45-19.21-5.6-33.27-18.18-42.19ZM2533.26,268.92c-1.14,11.44-4.35,22.19-9.6,32.24-5.26,10.07-12.81,18.41-22.64,25.04-9.84,6.63-22.98,10.18-39.44,10.63-14.19.46-24.93-2.28-32.24-8.23-7.32-5.94-11.21-14.17-11.66-24.7-.47-14.63,3.43-25.84,11.66-33.61,8.23-7.77,18.4-13.72,30.52-17.84,12.12-4.11,24.93-7.2,38.42-9.26,13.48-2.05,25.27-4.46,35.33-7.2.91,10.53.79,21.5-.34,32.93ZM2845.06,219.92h.42c-.11,5.04-.25,7.8-.42,0Z"/>
  </g>
</svg>