<?xml version="1.0" encoding="UTF-8"?>
<svg id="Layer_2" data-name="Layer 2" xmlns="http://www.w3.org/2000/svg" viewBox="0 0 833.2 201.75">
  <defs>
    <style>
      .cls-1 {
        fill: #f58220;
      }

      .cls-2 {
        fill: #833a89;
      }

      .cls-3 {
        fill: #636466;
      }

      .cls-4 {
        fill: #939598;
      }
    </style>
  </defs>
  <g id="Layer_1-2" data-name="Layer 1">
    <g>
      <path class="cls-2" d="M23.7,60.15c2.56-6.42,6.62-12.59,11.62-17.2.76-2.59.14-5.96.79-8.8.85-7,2.13-13.89,4.87-20.57.05-.13.14-.15.25-.07,1.53,1.09,2.93,2.2,4.22,3.34,3.41,2.72,6.45,6.51,9.86,9.2,10.75-6.67,15.07-1.24,8.7-7.88-3.89-3.67-21.95-23.23-26.91-16.91-11.42,16.09-14.43,40.66-13.4,58.9Z"/>
      <path class="cls-2" d="M37.93.43c-.35.09-.97.36-.84.82.15-.44.59-.5.84-.82Z"/>
      <path class="cls-2" d="M129.13,18.23c.17-.15.3-.12.39.09,1.62,3.91,2.78,7.99,3.87,12.07.03.12.13.21.25.23,0,0,9.3,1.62,9.3,1.62-1.59-7.91-4.64-16.17-8.21-23.23-2.77-6.13-6.83-4.7-11.26-1.06-6.89,5.4-13.67,11.75-18.92,18.07,19.36,2.76,10.38,4.18,24.58-7.79Z"/>
      <path class="cls-1" d="M72.39,17.41c1.51,1.17,3.07,3.06,4.95,4.4,7.08.86,12.03,1.82,18.89,2.81,1.23-.41,1.8-2.05,2.95-2.92,1.87-1.9,3.76-3.81,5.65-5.72.11-.11.06-.31-.1-.34-10.53-2.35-20.54-3.07-32.34-1.07-4.32.54-1.84.72,0,2.84Z"/>
      <path class="cls-2" d="M162.53,45.67c-6.84-5.45-11.53-5.29-20.9-6.84-4.19-.61-8.38-1.42-12.54-2.05-17.38-2.57-35.95-5.92-53.73-8.26-11.65-1.59-23.03,5.71-26.54,16.95-2.37,7.51-.89,15.76-1.27,23.54-.91,19.93,21.84,31.89,38.93,23.55-14.65.14-28.77-.91-33.71-17.56-1.28-7.09-.31-14.58-.58-21.68.22-9.06,6.85-17.79,16.01-19.02,11.23-.6,18.75,2.27,33.59,4.1,8.33,1.82,46.42,6.15,53.62,9.24,7.42,3.39,11.6,11.56,11.25,19.55-.34,3.09.56,15.81-.38,18.61-2.31,10.7-12.56,14.41-22.58,11.88,3.38,2.07,6.73,3.91,10.73,4.24,10.27.4,17.73-9.89,17.48-19.64-.05-12.86,2.14-27.91-9.37-36.62Z"/>
      <path class="cls-2" d="M76.55,57.29c-7.19,12.75,14.67,19.13,14,3.84-.96-6.71-9.99-9.57-14-3.84Z"/>
      <path class="cls-2" d="M144.61,61.54c-9.72-.78-9.98,14.06-1.01,15.36,9.62.81,9.8-13.92,1.01-15.36Z"/>
      <path class="cls-2" d="M68.93,102.65c-31.22-1.68-33.94-41.48-24.65-63.73-2.01,2.08-3.6,4.4-4.77,6.97-10.06,6.53-10.31,19.33-9.75,29.9-1.56,21.55,21.5,32.43,39.18,26.87Z"/>
      <path class="cls-1" d="M160.89,109.12c.17,14.9-4.06,29.92-12.49,42.3-3.81,5.65-7.47,9.92-13.39,15.42-.39.37-.74.38-.73,1.05.16,2.72-.35,10.17-.35,13.84,25.56-17.38,41.26-49.9,37.04-80.36-2.45,3.68-6.53,5.73-10.08,7.75Z"/>
      <path class="cls-2" d="M115.25,155.37c13.57-5.4,27.49-15.96,33.32-29.96-2.23-2.95-5.68-4.24-8.8-5.86-2-.94-1.35-4.37.83-4.61,3.09.09,7.55,3.49,9.89,5.31.89-2.82,1.5-6.58,1.25-9.47-23.95.29-19.01-26.33-39.38-25.1-6.35.24-9.94,5.95-14.49,9.69-7.5,6.01-15.5,8.86-24.53,11.57-11.21,2.86-25.01,3.67-35.13-3.04-2.55,6.3-2.65,14.69-2.02,21.62,2.62,25.52,22.89,45.04,44.91,55.48-.81-1.1-3.78-2.57-5.19-3.86-2.17-1.94-9.69-6.74-7.1-9.46.92-.43,1.84-.29,2.76.41,2.61,2.68,4.62,4.61,6.04,5.8,7.54,6.71,16.32,11.86,24.56,17.17,4.73,3.2,9.43,6.41,12.97,10.69,1.09-.94,1.86-2.75,2.68-4.1,7.38-14.08,10.55-30.11,6.71-45.71-2.78.75-6.53,2.82-9.26,3.43ZM75.98,116.28c-.11,2.01-6.36,2.82-8.46,4.17-2.51.82-6.71,4.61-7.81.4-.21-1.84.77-2.7,2.28-3.39,2.74-1.24,5.6-2.42,8.58-3.55,2.09-1.12,6.01-.97,5.41,2.37ZM114.91,119.44c-4.35,8.08-16.79,8.47-22,.95-.88-1.11-1.75-3.29-.76-4.58,3.84-3.87,4.84,2.89,8.21,3.78,5.46,2.5,11.45-1.79,12.02-7.54.53-4.66-4.66-6.91-6.16-10.81-.65-1.7-.27-3.8,1.47-4.69,3.17-1.62,5.63.76,8.3,1.9,2.01,1.12,5.3-.72,6.99-.68,2.48-.13,4.53,2.41,3.47,4.81-1.69,3.39-6.27,4.95-7.11,8.86-.53,2.75.33,5.78,2.21,7.83,2.2,2.48,5.93,2.06,7.62-.76,1.3-2.12,3.99-1.26,4.52.87.51,1.87-1.21,3.58-2.46,4.65-6.12,4.92-13.22,1.68-16.3-4.59Z"/>
      <path class="cls-1" d="M52.93,177.78c-31.6-15.68-48.34-53.61-39.75-87.64.79-4.6,3.33-9.61,4.65-14.8-.93-4.25-1.27-7.19-1.48-11.6-.26-1.45-.09-5.54-.55-4.67-2.87,4.11-5.39,7.97-7.55,12.69-28.93,60.55,22.39,134.81,89.14,123.73-7.69-4.38-15.8-8.25-24.22-10.89-6.63-2.41-13.9-3.55-20.24-6.82Z"/>
    </g>
    <g>
      <path class="cls-2" d="M271.63,57.66c2.98-1.56,6.38-2.33,10.21-2.33h10.14l-21.61,71.24c-1.78,5.6-4.52,9.81-8.21,12.61-3.69,2.8-8.65,4.2-14.88,4.2-7.03,0-12.45-1.89-16.28-5.67-3.83-3.78-6.72-8.92-8.67-15.41l-18.94-66.97h10.67c3.65,0,6.96.78,9.94,2.33,2.98,1.56,4.96,4.16,5.94,7.8l14.27,54.17c.53,1.69,1.45,2.54,2.74,2.54s2.25-.84,2.87-2.54l15.34-53.5c1.33-4.09,3.49-6.91,6.47-8.47Z"/>
      <path class="cls-2" d="M313.33,55.45c3.74,0,6.38,1.11,7.94,3.34,1.56,2.23,2.29,5.25,2.2,9.07l-.27,75.25h-12.14c-3.74,0-6.38-1.11-7.94-3.34-1.56-2.22-2.33-5.25-2.33-9.07v-64.97c0-1.78-.02-3.51-.07-5.2-.04-1.69-.07-3.38-.07-5.07h12.67Z"/>
      <path class="cls-2" d="M372.56,77.33h-4.27c-4,0-6.89.96-8.67,2.87-1.78,1.91-2.67,5.49-2.67,10.74v52.43h-13.47c-3.91.09-6.67-1-8.27-3.27-1.6-2.27-2.4-5.27-2.4-9.01l.13-44.16c0-5.87.78-10.83,2.33-14.88,1.56-4.05,3.82-7.29,6.8-9.74,2.98-2.45,6.65-4.18,11.01-5.2,4.36-1.02,9.34-1.53,14.94-1.53h14.01v13.21c0,2.13-.22,3.78-.67,4.94-.45,1.16-1.07,2-1.87,2.54-.8.53-1.8.85-3,.93-1.2.09-2.51.13-3.93.13Z"/>
      <path class="cls-2" d="M459.41,113.62c0,2.58.09,5.23.27,7.94.18,2.71.53,5.38,1.07,8,.53,2.62,1.2,5.14,2,7.54.8,2.4,1.82,4.54,3.07,6.4l-16.81-.13c-2.76-.09-5-.67-6.74-1.73-1.74-1.07-2.82-2.67-3.27-4.8-.18-.89-.38-1.6-.6-2.13-.22-.53-.42-1.33-.6-2.4-2.58,2.85-5.83,5.38-9.74,7.6-3.92,2.23-8.27,3.38-13.08,3.47-9.34.18-16.21-1.71-20.61-5.67-4.4-3.96-6.6-10.56-6.6-19.81,0-3.38.2-6.27.6-8.67.4-2.4,1.04-4.47,1.93-6.2.89-1.73,2.05-3.27,3.47-4.6,1.42-1.33,3.16-2.62,5.2-3.87,3.11-1.95,6.22-3.45,9.34-4.47,3.11-1.02,6.2-1.84,9.27-2.47,3.07-.62,6.14-1.18,9.21-1.67,3.07-.49,6.11-1.18,9.14-2.07,0-.71-.07-1.27-.2-1.67-.13-.4-.33-.82-.6-1.27-.98-1.78-2.62-2.8-4.94-3.07-2.31-.27-4.72-.4-7.2-.4-3.11-.09-6.25-.13-9.41-.13h-9.41c-3.83,0-6.85-.87-9.07-2.6-2.22-1.73-3.29-4.47-3.2-8.21v-10.67h29.48c2.94,0,6.07.05,9.41.13,3.34.09,6.6.47,9.81,1.13s6.18,1.76,8.94,3.27c2.76,1.51,4.98,3.65,6.67,6.4,2.31,3.92,3.42,10.76,3.34,20.55l-.13,26.28ZM421.66,120.96c3.2-.09,5.76-.78,7.67-2.07,1.91-1.29,3.38-2.91,4.4-4.87,1.02-1.96,1.64-4.05,1.87-6.27.22-2.22.24-4.36.07-6.4-1.96.53-4.25,1-6.87,1.4-2.62.4-5.12,1-7.47,1.8-2.36.8-4.34,1.96-5.94,3.47-1.6,1.51-2.36,3.69-2.27,6.54.09,2.05.84,3.65,2.27,4.8,1.42,1.16,3.51,1.69,6.27,1.6Z"/>
      <path class="cls-2" d="M537.73,124.63c2.22,1.65,3.34,4.34,3.34,8.07v10.67h-35.35c-4.09-.18-8.18-.71-12.27-1.6-4.09-.89-7.74-2.62-10.94-5.2-1.87-1.6-3.38-3.4-4.54-5.4-1.16-2-2.05-4.11-2.67-6.34-.62-2.22-1.07-4.51-1.33-6.87-.27-2.36-.45-4.69-.53-7v-54.85h12.67c3.74,0,6.38,1.11,7.94,3.34,1.56,2.22,2.33,5.2,2.33,8.94-.09,8.36-.13,5.51-.13,14.36v25.82c0,2.13.22,4.34.67,6.6.44,2.27,1.6,4.07,3.47,5.4,1.24.71,2.53,1.16,3.87,1.33,1.33.18,2.67.27,4,.27h20.55c3.74,0,6.71.82,8.94,2.47Z"/>
    </g>
    <path class="cls-2" d="M638.75,52.5v11.21c.09,3.47-.93,6.03-3.07,7.67-2.13,1.65-4.8,2.47-8,2.47h-22.28c-4.71-.09-7.94.82-9.67,2.74-1.74,1.91-2.69,5.14-2.87,9.67v20.41c.09,3.2.53,5.67,1.33,7.4.8,1.73,1.98,3,3.54,3.8,1.56.8,3.42,1.27,5.6,1.4,2.18.13,4.65.25,7.4.33,3.02,0,5.69-.02,8-.07,2.31-.04,4.98-.07,8-.07,1.6,0,3.11.18,4.54.53,1.42.36,2.67.91,3.74,1.67,1.07.76,1.91,1.78,2.54,3.07.62,1.29.93,2.87.93,4.74v11.07h-39.22c-4.98.09-9.27-.71-12.87-2.4-3.6-1.69-6.58-4.05-8.94-7.07-2.36-3.02-4.09-6.51-5.2-10.47-1.11-3.96-1.67-8.16-1.67-12.61v-24.28c.09-9.43,2.69-16.94,7.8-22.55,5.11-5.6,12.47-8.49,22.08-8.67h38.29Z"/>
    <circle class="cls-1" cx="816.86" cy="125.03" r="16.34"/>
    <path class="cls-2" d="M778.5,122.07c-2.45-1.73-5.58-2.6-9.41-2.6h-4.4c-1.87,0-3.31-.22-4.34-.67-1.02-.44-1.8-1.09-2.33-1.93-.53-.84-.87-1.91-1-3.2-.13-1.29-.2-2.73-.2-4.34v-14.06l10.94.13c3.74,0,6.74-.78,9.01-2.33,2.27-1.56,3.36-4.2,3.27-7.94v-10.41l-23.48-.13v-8.99c.09-3.82-.67-6.85-2.27-9.07-1.6-2.22-4.32-3.34-8.14-3.34h-12.27v23.78l-14,1.47c-.34-6.66-1.4-11.54-3.21-14.61-1.69-2.76-3.91-4.89-6.67-6.4-2.76-1.51-5.74-2.6-8.94-3.27s-6.47-1.04-9.81-1.13c-3.34-.09-6.47-.13-9.41-.13h-29.48v10.67c-.09,3.74.98,6.47,3.2,8.21,2.22,1.73,5.25,2.6,9.07,2.6h9.41c3.16,0,6.29.05,9.41.13,2.49,0,4.89.13,7.2.4,2.31.27,3.96,1.29,4.94,3.07.27.45.47.87.6,1.27.13.4.2.96.2,1.67-3.02.89-6.07,1.58-9.14,2.07-3.07.49-6.14,1.05-9.21,1.67-3.07.62-6.16,1.45-9.27,2.47-3.11,1.02-6.23,2.51-9.34,4.47-2.05,1.25-3.78,2.54-5.2,3.87-1.42,1.33-2.58,2.87-3.47,4.6-.89,1.73-1.53,3.8-1.93,6.2-.4,2.4-.6,5.29-.6,8.67,0,9.25,2.2,15.86,6.6,19.81,4.4,3.96,11.27,5.85,20.61,5.67,4.8-.09,9.16-1.24,13.08-3.47,3.91-2.22,7.16-4.76,9.74-7.6.18,1.07.38,1.87.6,2.4.22.53.42,1.25.6,2.13.44,2.13,1.53,3.74,3.27,4.8,1.73,1.07,3.98,1.65,6.74,1.73l16.81.13c-1.25-1.87-2.27-4-3.07-6.4-.8-2.4-1.47-4.91-2-7.54-.53-2.62-.89-5.29-1.07-8-.18-2.71-.27-5.36-.27-7.94l.07-13.5,14.02-.72c.03,5.95.05,13.3.05,19.96,0,5.25.51,9.43,1.53,12.54,1.02,3.11,2.64,5.52,4.87,7.2,2.22,1.69,5.07,2.82,8.54,3.4,3.47.58,7.61.87,12.41.87h20.68v-10.14c.09-3.74-1.09-6.47-3.54-8.21ZM696.05,104.8c-.22,2.22-.85,4.32-1.87,6.27-1.02,1.96-2.49,3.58-4.4,4.87-1.91,1.29-4.47,1.98-7.67,2.07-2.76.09-4.85-.44-6.27-1.6-1.42-1.15-2.18-2.76-2.27-4.8-.09-2.85.67-5.02,2.27-6.54,1.6-1.51,3.58-2.67,5.94-3.47,2.36-.8,4.85-1.4,7.47-1.8,2.62-.4,4.91-.87,6.87-1.4.18,2.05.15,4.18-.07,6.4ZM756.69,95.27h.08c-.02.98-.05,1.52-.08,0Z"/>
    <g>
      <path class="cls-4" d="M446.36,180.6v-23.97h10.33c5.43,0,8.71,2.86,8.71,7.24s-3.44,7.22-8.64,7.22h-6.48v9.52h-3.92ZM456.16,168.11c3.3,0,5.18-1.51,5.18-4.25s-1.83-4.21-5.21-4.21h-5.85v8.46h5.88Z"/>
      <path class="cls-4" d="M467.52,167.32c1.23-2.72,4.06-4.67,7.94-4.67,5.76,0,8.89,4.04,8.89,9.25,0,2.11-.56,4.18-1.88,6.08s-3.79,3.18-7.01,3.18-5.62-1.23-6.94-3.11-1.93-3.95-1.93-6.15c0-1.69.32-3.21.93-4.58ZM475.45,178.28c2.69,0,5-2.23,5-6.37s-2.32-6.36-5-6.36-5.01,2.14-5.01,6.36,2.27,6.37,5.01,6.37Z"/>
      <path class="cls-4" d="M484.77,163.19h4.07l3.34,14.14h.12l3.43-14.14h4.09l3.44,14.14h.16l3.28-14.14h4.09l-5.25,17.4h-4.39l-3.32-13.73h-.12l-3.3,13.73h-4.37l-5.27-17.4Z"/>
      <path class="cls-4" d="M520.14,162.65c5.2,0,8.76,3.69,8.76,8.96l-.11,1.42h-13.75c0,2.93,1.97,5.36,5.34,5.36,2.23,0,4.06-1.07,4.97-2.67l3.18.97c-1.27,2.6-4.06,4.48-8.18,4.48-5.41,0-9.13-3.69-9.13-9.36s3.79-9.15,8.92-9.15ZM525.04,170.61c0-2.95-1.83-5.22-4.9-5.22s-4.93,2.35-5,5.22h9.9Z"/>
      <path class="cls-4" d="M531.22,180.6v-17.4h3.6v2.09c.83-1.33,2.54-2.63,4.93-2.63,1.04,0,1.9.12,2.58.37v3.12c-.76-.26-1.62-.39-2.58-.39-3.02,0-4.72,2.25-4.72,5.69v9.15h-3.81Z"/>
      <path class="cls-4" d="M551.16,162.65c5.2,0,8.76,3.69,8.76,8.96l-.11,1.42h-13.75c0,2.93,1.97,5.36,5.34,5.36,2.23,0,4.06-1.07,4.97-2.67l3.18.97c-1.27,2.6-4.06,4.48-8.18,4.48-5.41,0-9.13-3.69-9.13-9.36s3.79-9.15,8.92-9.15ZM556.06,170.61c0-2.95-1.83-5.22-4.9-5.22s-4.93,2.35-5,5.22h9.9Z"/>
      <path class="cls-4" d="M569.65,162.65c2.41,0,4.32,1.35,5.23,2.83v-9.67h3.78v24.79h-3.67v-2.53c-.91,1.7-2.93,3.09-5.34,3.09-2.02,0-3.88-.72-5.5-2.12-1.63-1.39-2.72-3.95-2.72-7.17,0-5.71,3.44-9.22,8.22-9.22ZM570.15,178.28c2.76,0,4.78-2.48,4.78-6.41s-1.97-6.32-4.78-6.32c-3.02,0-4.86,2.51-4.86,6.32s1.98,6.41,4.86,6.41Z"/>
      <path class="cls-4" d="M588.01,180.6v-24.79h3.74v9.71c.91-1.53,2.81-2.86,5.25-2.86,4.78,0,8.22,3.51,8.22,9.22,0,3.21-1.11,5.78-2.72,7.17-1.61,1.4-3.53,2.12-5.44,2.12-2.44,0-4.51-1.39-5.35-3.05v2.49h-3.69ZM596.49,178.28c2.83,0,4.85-2.35,4.85-6.41s-1.9-6.32-4.85-6.32-4.79,2.51-4.79,6.32,2,6.41,4.79,6.41Z"/>
      <path class="cls-4" d="M605.4,163.19h4.21l4.95,13.49h.11l4.67-13.49h4.14l-8.13,19.88c-1.46,3.53-3.51,4.76-6.66,4.76h-1.25v-2.79h.67c1.88,0,3.12-.74,3.97-2.85l.65-1.83-7.34-17.17Z"/>
      <path class="cls-3" d="M630.96,156.63h6.25l5.88,16.28h.12l5.88-16.28h6.3v23.97h-5.18v-15.59l-5.23,14.47h-3.63l-5.27-14.61v15.73h-5.13v-23.97Z"/>
      <path class="cls-3" d="M658.03,156.31h5.08v4.79h-5.08v-4.79ZM658.1,162.98h4.95v17.61h-4.95v-17.61Z"/>
      <path class="cls-3" d="M665.84,162.98h4.79v1.72h.02c1.02-1.49,2.62-2.25,4.79-2.25,4.16,0,6.23,2.28,6.23,6.85v11.29h-4.97v-10.73c0-2.51-.74-3.43-2.37-3.43-2.11,0-3.49,1.76-3.49,4.16v9.99h-5.01v-17.61Z"/>
      <path class="cls-3" d="M686.33,179.02c-1.58-1.4-2.62-3.97-2.62-7.25,0-5.81,3.34-9.31,8.11-9.31,1.76,0,3.18.61,4.25,1.83v-8.38h4.97v24.69h-4.86v-1.77c-.76,1.25-2.55,2.3-4.37,2.3-2.04,0-3.9-.7-5.48-2.11ZM692.51,177.14c2.25,0,3.58-2.02,3.58-5.37s-1.25-5.32-3.58-5.32-3.65,2.07-3.65,5.32c0,3.46,1.4,5.37,3.65,5.37Z"/>
      <path class="cls-3" d="M702.9,176.8l3.51-1.93c1.28,1.67,2.88,2.49,4.79,2.49,1.6,0,2.53-.74,2.53-1.65,0-.76-.46-1.16-1.19-1.53-.44-.21-.7-.32-1.27-.53-.28-.11-.51-.18-.7-.23-.37-.07-1.18-.32-1.53-.46-3.18-.98-5.21-2.3-5.21-5.32s3.39-5.2,7.41-5.2c3.11,0,6.3,1.67,7.71,4.2l-3.3,1.79c-1.32-1.49-2.78-2.25-4.36-2.25-1.47,0-2.41.65-2.41,1.56,0,.74.51,1.14,1.11,1.51.35.23,1.19.49,1.6.61,1.32.44,1.28.39,1.88.6,3.62,1.12,5.43,2.88,5.43,5.29,0,2.95-2.69,5.35-7.53,5.35-3.79,0-6.97-1.74-8.46-4.32Z"/>
      <path class="cls-3" d="M722.26,174.94v-8.02h-2.69v-3.93h2.69v-5.01h4.97v5.01h3.9v3.93h-3.9v7.76c0,1.28.6,1.93,1.81,1.93h2.13v3.99h-2.76c-4.09,0-6.15-1.88-6.15-5.65Z"/>
      <path class="cls-3" d="M734.62,178.95c-1.95-1.93-2.67-4.65-2.67-7.17s.67-4.58,2.02-6.39c1.33-1.81,3.79-2.93,6.83-2.93s5.5,1.12,6.85,2.93c1.33,1.81,2,3.99,2,6.39,0,1.6-.21,3.05-1.02,4.79-.4.86-.93,1.62-1.56,2.27-1.26,1.3-3.48,2.28-6.27,2.28s-4.88-.89-6.18-2.18ZM740.8,177.14c.83,0,1.56-.32,2.35-1.04.79-.72,1.37-2.28,1.37-4.32s-.51-3.56-1.33-4.32c-.84-.76-1.56-1.02-2.39-1.02-1.88,0-3.7,1.46-3.7,5.34s1.83,5.36,3.7,5.36Z"/>
      <path class="cls-3" d="M751.64,162.98h4.79v1.49c.77-1.11,2.35-2.02,4.2-2.02,1.07,0,1.84.11,2.32.33v4.25c-.76-.19-1.53-.3-2.32-.3-2.69,0-3.99,2.07-3.99,5.37v8.48h-5.01v-17.61Z"/>
      <path class="cls-3" d="M765.02,183.58h.6c2.11,0,3.21-.61,3.83-2.23l.6-1.56-6.9-16.81h5.39l3.93,12.12h.09l3.56-12.12h5.39l-7.66,19.54c-1.42,3.65-3.79,4.97-7.43,4.97h-1.4v-3.92Z"/>
    </g>
  </g>
</svg>